%TF.GenerationSoftware,KiCad,Pcbnew,8.0.4*%
%TF.CreationDate,2024-08-23T08:24:53+02:00*%
%TF.ProjectId,nixie_clock_design,6e697869-655f-4636-9c6f-636b5f646573,rev?*%
%TF.SameCoordinates,Original*%
%TF.FileFunction,Soldermask,Top*%
%TF.FilePolarity,Negative*%
%FSLAX46Y46*%
G04 Gerber Fmt 4.6, Leading zero omitted, Abs format (unit mm)*
G04 Created by KiCad (PCBNEW 8.0.4) date 2024-08-23 08:24:53*
%MOMM*%
%LPD*%
G01*
G04 APERTURE LIST*
G04 Aperture macros list*
%AMRoundRect*
0 Rectangle with rounded corners*
0 $1 Rounding radius*
0 $2 $3 $4 $5 $6 $7 $8 $9 X,Y pos of 4 corners*
0 Add a 4 corners polygon primitive as box body*
4,1,4,$2,$3,$4,$5,$6,$7,$8,$9,$2,$3,0*
0 Add four circle primitives for the rounded corners*
1,1,$1+$1,$2,$3*
1,1,$1+$1,$4,$5*
1,1,$1+$1,$6,$7*
1,1,$1+$1,$8,$9*
0 Add four rect primitives between the rounded corners*
20,1,$1+$1,$2,$3,$4,$5,0*
20,1,$1+$1,$4,$5,$6,$7,0*
20,1,$1+$1,$6,$7,$8,$9,0*
20,1,$1+$1,$8,$9,$2,$3,0*%
G04 Aperture macros list end*
%ADD10RoundRect,0.200000X-0.275000X0.200000X-0.275000X-0.200000X0.275000X-0.200000X0.275000X0.200000X0*%
%ADD11RoundRect,0.200000X0.275000X-0.200000X0.275000X0.200000X-0.275000X0.200000X-0.275000X-0.200000X0*%
%ADD12RoundRect,0.075000X0.075000X-0.650000X0.075000X0.650000X-0.075000X0.650000X-0.075000X-0.650000X0*%
%ADD13R,1.880000X1.680000*%
%ADD14RoundRect,0.200000X0.200000X0.275000X-0.200000X0.275000X-0.200000X-0.275000X0.200000X-0.275000X0*%
%ADD15RoundRect,0.200000X-0.200000X-0.275000X0.200000X-0.275000X0.200000X0.275000X-0.200000X0.275000X0*%
%ADD16RoundRect,0.250000X-1.100000X0.325000X-1.100000X-0.325000X1.100000X-0.325000X1.100000X0.325000X0*%
%ADD17R,1.500000X1.500000*%
%ADD18C,1.500000*%
%ADD19RoundRect,0.250000X0.400000X1.450000X-0.400000X1.450000X-0.400000X-1.450000X0.400000X-1.450000X0*%
%ADD20RoundRect,0.250000X0.850000X0.350000X-0.850000X0.350000X-0.850000X-0.350000X0.850000X-0.350000X0*%
%ADD21RoundRect,0.249997X2.950003X2.650003X-2.950003X2.650003X-2.950003X-2.650003X2.950003X-2.650003X0*%
%ADD22RoundRect,0.250000X-0.625000X0.312500X-0.625000X-0.312500X0.625000X-0.312500X0.625000X0.312500X0*%
%ADD23R,1.070000X1.800000*%
%ADD24O,1.070000X1.800000*%
%ADD25RoundRect,0.250000X0.625000X-0.375000X0.625000X0.375000X-0.625000X0.375000X-0.625000X-0.375000X0*%
%ADD26RoundRect,0.225000X0.250000X-0.225000X0.250000X0.225000X-0.250000X0.225000X-0.250000X-0.225000X0*%
%ADD27RoundRect,0.150000X-0.875000X-0.150000X0.875000X-0.150000X0.875000X0.150000X-0.875000X0.150000X0*%
%ADD28RoundRect,0.250000X-0.475000X0.250000X-0.475000X-0.250000X0.475000X-0.250000X0.475000X0.250000X0*%
%ADD29RoundRect,0.225000X0.225000X0.250000X-0.225000X0.250000X-0.225000X-0.250000X0.225000X-0.250000X0*%
%ADD30C,2.003200*%
%ADD31R,2.500000X1.000000*%
%ADD32R,1.000000X1.800000*%
%ADD33RoundRect,0.225000X-0.225000X-0.250000X0.225000X-0.250000X0.225000X0.250000X-0.225000X0.250000X0*%
%ADD34C,0.650000*%
%ADD35RoundRect,0.150000X-0.150000X-0.377500X0.150000X-0.377500X0.150000X0.377500X-0.150000X0.377500X0*%
%ADD36RoundRect,0.150000X-0.150000X-0.425000X0.150000X-0.425000X0.150000X0.425000X-0.150000X0.425000X0*%
%ADD37RoundRect,0.075000X-0.075000X-0.500000X0.075000X-0.500000X0.075000X0.500000X-0.075000X0.500000X0*%
%ADD38O,1.000000X2.100000*%
%ADD39O,1.000000X1.800000*%
%ADD40RoundRect,0.175000X0.175000X0.325000X-0.175000X0.325000X-0.175000X-0.325000X0.175000X-0.325000X0*%
%ADD41RoundRect,0.150000X0.200000X0.150000X-0.200000X0.150000X-0.200000X-0.150000X0.200000X-0.150000X0*%
%ADD42RoundRect,0.375000X-0.625000X-0.375000X0.625000X-0.375000X0.625000X0.375000X-0.625000X0.375000X0*%
%ADD43RoundRect,0.500000X-0.500000X-1.400000X0.500000X-1.400000X0.500000X1.400000X-0.500000X1.400000X0*%
%ADD44RoundRect,0.250000X0.475000X-0.250000X0.475000X0.250000X-0.475000X0.250000X-0.475000X-0.250000X0*%
%ADD45RoundRect,0.175000X-0.325000X-0.175000X0.325000X-0.175000X0.325000X0.175000X-0.325000X0.175000X0*%
%ADD46R,0.520000X1.500000*%
%ADD47R,1.500000X0.520000*%
%ADD48C,2.000000*%
%ADD49C,1.700000*%
%ADD50R,2.950000X1.000000*%
%ADD51R,0.940000X0.830000*%
%ADD52RoundRect,0.250000X0.312500X0.625000X-0.312500X0.625000X-0.312500X-0.625000X0.312500X-0.625000X0*%
%ADD53C,3.200000*%
%ADD54RoundRect,0.250000X-0.325000X-0.650000X0.325000X-0.650000X0.325000X0.650000X-0.325000X0.650000X0*%
%ADD55RoundRect,0.225000X-0.250000X0.225000X-0.250000X-0.225000X0.250000X-0.225000X0.250000X0.225000X0*%
%ADD56R,1.800000X1.800000*%
%ADD57C,1.800000*%
%ADD58RoundRect,0.250000X-0.250000X-0.475000X0.250000X-0.475000X0.250000X0.475000X-0.250000X0.475000X0*%
%ADD59R,1.750000X0.450000*%
%ADD60RoundRect,0.250000X-0.312500X-0.625000X0.312500X-0.625000X0.312500X0.625000X-0.312500X0.625000X0*%
%ADD61RoundRect,0.250000X1.000000X0.900000X-1.000000X0.900000X-1.000000X-0.900000X1.000000X-0.900000X0*%
%ADD62RoundRect,0.100000X0.225000X0.100000X-0.225000X0.100000X-0.225000X-0.100000X0.225000X-0.100000X0*%
%ADD63RoundRect,0.375000X0.375000X-0.625000X0.375000X0.625000X-0.375000X0.625000X-0.375000X-0.625000X0*%
%ADD64RoundRect,0.500000X1.400000X-0.500000X1.400000X0.500000X-1.400000X0.500000X-1.400000X-0.500000X0*%
%ADD65R,2.000000X1.400000*%
G04 APERTURE END LIST*
D10*
%TO.C,R19*%
X171100000Y-116850000D03*
X171100000Y-118500000D03*
%TD*%
D11*
%TO.C,R39*%
X236500000Y-109625000D03*
X236500000Y-107975000D03*
%TD*%
D12*
%TO.C,U7*%
X95192500Y-108667500D03*
X95692500Y-108667500D03*
X96192500Y-108667500D03*
X96692500Y-108667500D03*
X97192500Y-108667500D03*
X97192500Y-104367500D03*
X96692500Y-104367500D03*
X96192500Y-104367500D03*
X95692500Y-104367500D03*
X95192500Y-104367500D03*
D13*
X96192500Y-106517500D03*
%TD*%
D14*
%TO.C,R20*%
X209425000Y-117500000D03*
X207775000Y-117500000D03*
%TD*%
D15*
%TO.C,R26*%
X97975000Y-100900000D03*
X99625000Y-100900000D03*
%TD*%
D16*
%TO.C,C16*%
X99800000Y-106025000D03*
X99800000Y-108975000D03*
%TD*%
D17*
%TO.C,Q4*%
X227100000Y-74420000D03*
D18*
X227100000Y-76960000D03*
X227100000Y-79500000D03*
%TD*%
D19*
%TO.C,F1*%
X177325000Y-126225000D03*
X172875000Y-126225000D03*
%TD*%
D11*
%TO.C,R15*%
X198600000Y-122825000D03*
X198600000Y-121175000D03*
%TD*%
D10*
%TO.C,R41*%
X133050000Y-83825000D03*
X133050000Y-85475000D03*
%TD*%
D20*
%TO.C,Q15*%
X123117500Y-125677500D03*
D21*
X116817500Y-123397500D03*
D20*
X123117500Y-121117500D03*
%TD*%
D22*
%TO.C,R1*%
X140600000Y-79537500D03*
X140600000Y-82462500D03*
%TD*%
D23*
%TO.C,LED1*%
X99500000Y-89500000D03*
D24*
X98230000Y-89500000D03*
X96960000Y-89500000D03*
X95690000Y-89500000D03*
%TD*%
D17*
%TO.C,Q10*%
X218050000Y-79587500D03*
D18*
X218050000Y-77047500D03*
X218050000Y-74507500D03*
%TD*%
D25*
%TO.C,D1*%
X201600000Y-127400000D03*
X201600000Y-124600000D03*
%TD*%
D26*
%TO.C,C6*%
X172600000Y-105275000D03*
X172600000Y-103725000D03*
%TD*%
D17*
%TO.C,Q8*%
X115137500Y-79500000D03*
D18*
X115137500Y-76960000D03*
X115137500Y-74420000D03*
%TD*%
D27*
%TO.C,U5*%
X216950000Y-108420000D03*
X216950000Y-109690000D03*
X216950000Y-110960000D03*
X216950000Y-112230000D03*
X216950000Y-113500000D03*
X216950000Y-114770000D03*
X216950000Y-116040000D03*
X216950000Y-117310000D03*
X216950000Y-118580000D03*
X226250000Y-118580000D03*
X226250000Y-117310000D03*
X226250000Y-116040000D03*
X226250000Y-114770000D03*
X226250000Y-113500000D03*
X226250000Y-112230000D03*
X226250000Y-110960000D03*
X226250000Y-109690000D03*
X226250000Y-108420000D03*
%TD*%
D28*
%TO.C,C11*%
X159600000Y-85350000D03*
X159600000Y-87250000D03*
%TD*%
D23*
%TO.C,LED6*%
X224500000Y-89500000D03*
D24*
X223230000Y-89500000D03*
X221960000Y-89500000D03*
X220690000Y-89500000D03*
%TD*%
D29*
%TO.C,C29*%
X147975000Y-104400000D03*
X146425000Y-104400000D03*
%TD*%
D23*
%TO.C,LED4*%
X173000000Y-89500000D03*
D24*
X171730000Y-89500000D03*
X170460000Y-89500000D03*
X169190000Y-89500000D03*
%TD*%
D30*
%TO.C,N6*%
X218486379Y-91875000D03*
X224975000Y-93613621D03*
X226713621Y-91875000D03*
X227350000Y-89500000D03*
X226713621Y-87125000D03*
X224975000Y-85386379D03*
X222600000Y-84750000D03*
X220225000Y-85386379D03*
X218486379Y-87125000D03*
X217850000Y-89500000D03*
X220225000Y-93613621D03*
%TD*%
D31*
%TO.C,U6*%
X167700000Y-117500000D03*
X167700000Y-115500000D03*
X167700000Y-113500000D03*
X167700000Y-111500000D03*
X167700000Y-109500000D03*
X167700000Y-107500000D03*
X167700000Y-105500000D03*
X167700000Y-103500000D03*
D32*
X165100000Y-102000000D03*
X163100000Y-102000000D03*
X161100000Y-102000000D03*
X159100000Y-102000000D03*
X157100000Y-102000000D03*
X155100000Y-102000000D03*
D31*
X152500000Y-103500000D03*
X152500000Y-105500000D03*
X152500000Y-107500000D03*
X152500000Y-109500000D03*
X152500000Y-111500000D03*
X152500000Y-113500000D03*
X152500000Y-115500000D03*
X152500000Y-117500000D03*
%TD*%
D33*
%TO.C,C23*%
X98000000Y-102500000D03*
X99550000Y-102500000D03*
%TD*%
D10*
%TO.C,R42*%
X181200000Y-117175000D03*
X181200000Y-118825000D03*
%TD*%
D34*
%TO.C,USB1*%
X210220000Y-122730000D03*
X216000000Y-122730000D03*
D35*
X209910000Y-121607500D03*
D36*
X210710000Y-121655000D03*
D37*
X211860000Y-121655000D03*
X212860000Y-121655000D03*
X213360000Y-121655000D03*
X214360000Y-121655000D03*
D36*
X215510000Y-121655000D03*
D35*
X216310000Y-121607500D03*
X216310000Y-121607500D03*
D36*
X215510000Y-121655000D03*
D37*
X214860000Y-121655000D03*
X213860000Y-121655000D03*
X212360000Y-121655000D03*
X211360000Y-121655000D03*
D36*
X210710000Y-121655000D03*
D35*
X209910000Y-121607500D03*
D38*
X208790000Y-122230000D03*
D39*
X208790000Y-126410000D03*
D38*
X217430000Y-122230000D03*
D39*
X217430000Y-126410000D03*
%TD*%
D40*
%TO.C,D3*%
X177600000Y-122250000D03*
D41*
X177600000Y-120550000D03*
X175600000Y-120550000D03*
X175600000Y-122450000D03*
%TD*%
D10*
%TO.C,R33*%
X236500000Y-117075000D03*
X236500000Y-118725000D03*
%TD*%
D17*
%TO.C,Q3*%
X102150000Y-74450000D03*
D18*
X102150000Y-76990000D03*
X102150000Y-79530000D03*
%TD*%
D10*
%TO.C,R37*%
X236500000Y-110975000D03*
X236500000Y-112625000D03*
%TD*%
D15*
%TO.C,R43*%
X175675000Y-102600000D03*
X177325000Y-102600000D03*
%TD*%
D10*
%TO.C,R36*%
X229100000Y-110775000D03*
X229100000Y-112425000D03*
%TD*%
D42*
%TO.C,U8*%
X141750000Y-106900000D03*
X141750000Y-109200000D03*
D43*
X148050000Y-109200000D03*
D42*
X141750000Y-111500000D03*
%TD*%
D44*
%TO.C,C12*%
X148600000Y-126950000D03*
X148600000Y-125050000D03*
%TD*%
D45*
%TO.C,Q13*%
X232480000Y-98650000D03*
X232480000Y-100550000D03*
X234880000Y-99600000D03*
%TD*%
D28*
%TO.C,C27*%
X108100000Y-85350000D03*
X108100000Y-87250000D03*
%TD*%
D46*
%TO.C,U1*%
X118600000Y-115050000D03*
X119400000Y-115050000D03*
X120200000Y-115050000D03*
X121000000Y-115050000D03*
X121800000Y-115050000D03*
X122600000Y-115050000D03*
X123400000Y-115050000D03*
X124200000Y-115050000D03*
X125000000Y-115050000D03*
X125800000Y-115050000D03*
X126600000Y-115050000D03*
D47*
X128650000Y-113000000D03*
X128650000Y-112200000D03*
X128650000Y-111400000D03*
X128650000Y-110600000D03*
X128650000Y-109800000D03*
X128650000Y-109000000D03*
X128650000Y-108200000D03*
X128650000Y-107400000D03*
X128650000Y-106600000D03*
X128650000Y-105800000D03*
X128650000Y-105000000D03*
D46*
X126600000Y-102950000D03*
X125800000Y-102950000D03*
X125000000Y-102950000D03*
X124200000Y-102950000D03*
X123400000Y-102950000D03*
X122600000Y-102950000D03*
X121800000Y-102950000D03*
X121000000Y-102950000D03*
X120200000Y-102950000D03*
X119400000Y-102950000D03*
X118600000Y-102950000D03*
D47*
X116550000Y-105000000D03*
X116550000Y-105800000D03*
X116550000Y-106600000D03*
X116550000Y-107400000D03*
X116550000Y-108200000D03*
X116550000Y-109000000D03*
X116550000Y-109800000D03*
X116550000Y-110600000D03*
X116550000Y-111400000D03*
X116550000Y-112200000D03*
X116550000Y-113000000D03*
%TD*%
D28*
%TO.C,C1*%
X134100000Y-101900000D03*
X134100000Y-103800000D03*
%TD*%
D11*
%TO.C,R14*%
X201600000Y-122825000D03*
X201600000Y-121175000D03*
%TD*%
D48*
%TO.C,SW1*%
X181142500Y-121417500D03*
X181142500Y-127417500D03*
X193142500Y-121417500D03*
X193142500Y-127417500D03*
D49*
X183142500Y-123167500D03*
X187142500Y-123167500D03*
X191142500Y-123167500D03*
%TD*%
D23*
%TO.C,LED2*%
X121500000Y-89500000D03*
D24*
X120230000Y-89500000D03*
X118960000Y-89500000D03*
X117690000Y-89500000D03*
%TD*%
D17*
%TO.C,Q9*%
X93100000Y-79540000D03*
D18*
X93100000Y-77000000D03*
X93100000Y-74460000D03*
%TD*%
D50*
%TO.C,T1*%
X89825000Y-113450000D03*
X89825000Y-115950000D03*
X89825000Y-118450000D03*
X89825000Y-120950000D03*
X89825000Y-123450000D03*
X89825000Y-125950000D03*
X109775000Y-125950000D03*
X109775000Y-123450000D03*
X109775000Y-120950000D03*
X109775000Y-118450000D03*
X109775000Y-115950000D03*
X109775000Y-113450000D03*
%TD*%
D51*
%TO.C,C20*%
X93600000Y-108660000D03*
X93600000Y-107340000D03*
%TD*%
D52*
%TO.C,R11*%
X202012500Y-76932500D03*
X199087500Y-76932500D03*
%TD*%
D16*
%TO.C,C15*%
X110300000Y-106025000D03*
X110300000Y-108975000D03*
%TD*%
D53*
%TO.C,REF\u002A\u002A*%
X236600000Y-72500000D03*
%TD*%
%TO.C,REF\u002A\u002A*%
X236600000Y-125500000D03*
%TD*%
D45*
%TO.C,Q18*%
X231590000Y-110600000D03*
X231590000Y-112500000D03*
X233990000Y-111550000D03*
%TD*%
D54*
%TO.C,C24*%
X83625000Y-90500000D03*
X86575000Y-90500000D03*
%TD*%
D28*
%TO.C,C26*%
X129900000Y-85350000D03*
X129900000Y-87250000D03*
%TD*%
D15*
%TO.C,R16*%
X211375000Y-114000000D03*
X213025000Y-114000000D03*
%TD*%
D53*
%TO.C,REF\u002A\u002A*%
X83600000Y-125500000D03*
%TD*%
D17*
%TO.C,Q1*%
X153600000Y-74420000D03*
D18*
X153600000Y-76960000D03*
X153600000Y-79500000D03*
%TD*%
D14*
%TO.C,R25*%
X91925000Y-102500000D03*
X90275000Y-102500000D03*
%TD*%
D55*
%TO.C,C21*%
X92100000Y-104225000D03*
X92100000Y-105775000D03*
%TD*%
D10*
%TO.C,R38*%
X229100000Y-107175000D03*
X229100000Y-108825000D03*
%TD*%
%TO.C,R17*%
X229680000Y-98775000D03*
X229680000Y-100425000D03*
%TD*%
D22*
%TO.C,R3*%
X89100000Y-79537500D03*
X89100000Y-82462500D03*
%TD*%
%TO.C,R4*%
X214100000Y-79537500D03*
X214100000Y-82462500D03*
%TD*%
D17*
%TO.C,Q6*%
X175600000Y-74420000D03*
D18*
X175600000Y-76960000D03*
X175600000Y-79500000D03*
%TD*%
D10*
%TO.C,R29*%
X86200000Y-97675000D03*
X86200000Y-99325000D03*
%TD*%
D28*
%TO.C,C10*%
X181400000Y-85350000D03*
X181400000Y-87250000D03*
%TD*%
D22*
%TO.C,R5*%
X192050000Y-79470000D03*
X192050000Y-82395000D03*
%TD*%
D56*
%TO.C,NE2*%
X184575000Y-89500000D03*
D57*
X187115000Y-89500000D03*
%TD*%
D58*
%TO.C,C9*%
X212350000Y-112200000D03*
X214250000Y-112200000D03*
%TD*%
D10*
%TO.C,R32*%
X229100000Y-117975000D03*
X229100000Y-119625000D03*
%TD*%
D54*
%TO.C,C5*%
X181125000Y-104000000D03*
X184075000Y-104000000D03*
%TD*%
D59*
%TO.C,U4*%
X178500000Y-106775000D03*
X178500000Y-107425000D03*
X178500000Y-108075000D03*
X178500000Y-108725000D03*
X178500000Y-109375000D03*
X178500000Y-110025000D03*
X178500000Y-110675000D03*
X178500000Y-111325000D03*
X178500000Y-111975000D03*
X178500000Y-112625000D03*
X178500000Y-113275000D03*
X178500000Y-113925000D03*
X178500000Y-114575000D03*
X178500000Y-115225000D03*
X185700000Y-115225000D03*
X185700000Y-114575000D03*
X185700000Y-113925000D03*
X185700000Y-113275000D03*
X185700000Y-112625000D03*
X185700000Y-111975000D03*
X185700000Y-111325000D03*
X185700000Y-110675000D03*
X185700000Y-110025000D03*
X185700000Y-109375000D03*
X185700000Y-108725000D03*
X185700000Y-108075000D03*
X185700000Y-107425000D03*
X185700000Y-106775000D03*
%TD*%
D52*
%TO.C,R12*%
X172512500Y-76932500D03*
X169587500Y-76932500D03*
%TD*%
D44*
%TO.C,C13*%
X148600000Y-122350000D03*
X148600000Y-120450000D03*
%TD*%
D55*
%TO.C,C4*%
X182800000Y-117225000D03*
X182800000Y-118775000D03*
%TD*%
D52*
%TO.C,R7*%
X150562500Y-77000000D03*
X147637500Y-77000000D03*
%TD*%
D17*
%TO.C,Q12*%
X166500000Y-79520000D03*
D18*
X166500000Y-76980000D03*
X166500000Y-74440000D03*
%TD*%
D22*
%TO.C,R6*%
X162550000Y-79470000D03*
X162550000Y-82395000D03*
%TD*%
D10*
%TO.C,R31*%
X216400000Y-105175000D03*
X216400000Y-106825000D03*
%TD*%
D22*
%TO.C,R27*%
X102300000Y-101000000D03*
X102300000Y-103925000D03*
%TD*%
D55*
%TO.C,C19*%
X93600000Y-104225000D03*
X93600000Y-105775000D03*
%TD*%
D46*
%TO.C,U2*%
X193600000Y-115050000D03*
X194400000Y-115050000D03*
X195200000Y-115050000D03*
X196000000Y-115050000D03*
X196800000Y-115050000D03*
X197600000Y-115050000D03*
X198400000Y-115050000D03*
X199200000Y-115050000D03*
X200000000Y-115050000D03*
X200800000Y-115050000D03*
X201600000Y-115050000D03*
D47*
X203650000Y-113000000D03*
X203650000Y-112200000D03*
X203650000Y-111400000D03*
X203650000Y-110600000D03*
X203650000Y-109800000D03*
X203650000Y-109000000D03*
X203650000Y-108200000D03*
X203650000Y-107400000D03*
X203650000Y-106600000D03*
X203650000Y-105800000D03*
X203650000Y-105000000D03*
D46*
X201600000Y-102950000D03*
X200800000Y-102950000D03*
X200000000Y-102950000D03*
X199200000Y-102950000D03*
X198400000Y-102950000D03*
X197600000Y-102950000D03*
X196800000Y-102950000D03*
X196000000Y-102950000D03*
X195200000Y-102950000D03*
X194400000Y-102950000D03*
X193600000Y-102950000D03*
D47*
X191550000Y-105000000D03*
X191550000Y-105800000D03*
X191550000Y-106600000D03*
X191550000Y-107400000D03*
X191550000Y-108200000D03*
X191550000Y-109000000D03*
X191550000Y-109800000D03*
X191550000Y-110600000D03*
X191550000Y-111400000D03*
X191550000Y-112200000D03*
X191550000Y-113000000D03*
%TD*%
D30*
%TO.C,N1*%
X93486379Y-91875000D03*
X99975000Y-93613621D03*
X101713621Y-91875000D03*
X102350000Y-89500000D03*
X101713621Y-87125000D03*
X99975000Y-85386379D03*
X97600000Y-84750000D03*
X95225000Y-85386379D03*
X93486379Y-87125000D03*
X92850000Y-89500000D03*
X95225000Y-93613621D03*
%TD*%
D16*
%TO.C,C17*%
X106800000Y-106025000D03*
X106800000Y-108975000D03*
%TD*%
D22*
%TO.C,R13*%
X131600000Y-101537500D03*
X131600000Y-104462500D03*
%TD*%
D28*
%TO.C,C2*%
X186100000Y-101900000D03*
X186100000Y-103800000D03*
%TD*%
D25*
%TO.C,D2*%
X198600000Y-127400000D03*
X198600000Y-124600000D03*
%TD*%
D23*
%TO.C,LED5*%
X202500000Y-89500000D03*
D24*
X201230000Y-89500000D03*
X199960000Y-89500000D03*
X198690000Y-89500000D03*
%TD*%
D10*
%TO.C,R34*%
X229100000Y-114375000D03*
X229100000Y-116025000D03*
%TD*%
D11*
%TO.C,R40*%
X187150000Y-85475000D03*
X187150000Y-83825000D03*
%TD*%
D17*
%TO.C,Q7*%
X144550000Y-79550000D03*
D18*
X144550000Y-77010000D03*
X144550000Y-74470000D03*
%TD*%
D60*
%TO.C,R28*%
X83637500Y-95500000D03*
X86562500Y-95500000D03*
%TD*%
D17*
%TO.C,Q5*%
X205100000Y-74420000D03*
D18*
X205100000Y-76960000D03*
X205100000Y-79500000D03*
%TD*%
D53*
%TO.C,REF\u002A\u002A*%
X83600000Y-72500000D03*
%TD*%
D30*
%TO.C,N4*%
X166986379Y-91875000D03*
X173475000Y-93613621D03*
X175213621Y-91875000D03*
X175850000Y-89500000D03*
X175213621Y-87125000D03*
X173475000Y-85386379D03*
X171100000Y-84750000D03*
X168725000Y-85386379D03*
X166986379Y-87125000D03*
X166350000Y-89500000D03*
X168725000Y-93613621D03*
%TD*%
D44*
%TO.C,C14*%
X147200000Y-116950000D03*
X147200000Y-115050000D03*
%TD*%
D17*
%TO.C,Q11*%
X196007500Y-79520000D03*
D18*
X196007500Y-76980000D03*
X196007500Y-74440000D03*
%TD*%
D23*
%TO.C,LED3*%
X151000000Y-89500000D03*
D24*
X149730000Y-89500000D03*
X148460000Y-89500000D03*
X147190000Y-89500000D03*
%TD*%
D22*
%TO.C,R2*%
X111137500Y-79537500D03*
X111137500Y-82462500D03*
%TD*%
D61*
%TO.C,D4*%
X141227500Y-115522500D03*
X136927500Y-115522500D03*
%TD*%
D28*
%TO.C,C7*%
X233600000Y-85750000D03*
X233600000Y-87650000D03*
%TD*%
D45*
%TO.C,Q19*%
X231590000Y-107000000D03*
X231590000Y-108900000D03*
X233990000Y-107950000D03*
%TD*%
D52*
%TO.C,R9*%
X99062500Y-77000000D03*
X96137500Y-77000000D03*
%TD*%
D15*
%TO.C,R23*%
X94275000Y-99500000D03*
X95925000Y-99500000D03*
%TD*%
D28*
%TO.C,C8*%
X210650000Y-85350000D03*
X210650000Y-87250000D03*
%TD*%
D29*
%TO.C,C28*%
X139475000Y-111500000D03*
X137925000Y-111500000D03*
%TD*%
D11*
%TO.C,R35*%
X236500000Y-115725000D03*
X236500000Y-114075000D03*
%TD*%
D62*
%TO.C,Q14*%
X175600000Y-118000000D03*
X175600000Y-117350000D03*
X175600000Y-116700000D03*
X173700000Y-116700000D03*
X173700000Y-117350000D03*
X173700000Y-118000000D03*
%TD*%
D52*
%TO.C,R8*%
X121100000Y-77000000D03*
X118175000Y-77000000D03*
%TD*%
D10*
%TO.C,R18*%
X238180000Y-98775000D03*
X238180000Y-100425000D03*
%TD*%
D55*
%TO.C,C22*%
X90600000Y-104225000D03*
X90600000Y-105775000D03*
%TD*%
D16*
%TO.C,C18*%
X103300000Y-106025000D03*
X103300000Y-108975000D03*
%TD*%
D54*
%TO.C,C25*%
X83625000Y-93000000D03*
X86575000Y-93000000D03*
%TD*%
D52*
%TO.C,R10*%
X224062500Y-77000000D03*
X221137500Y-77000000D03*
%TD*%
D63*
%TO.C,U3*%
X139500000Y-126500000D03*
X141800000Y-126500000D03*
D64*
X141800000Y-120200000D03*
D63*
X144100000Y-126500000D03*
%TD*%
D45*
%TO.C,Q16*%
X231590000Y-117770000D03*
X231590000Y-119670000D03*
X233990000Y-118720000D03*
%TD*%
D30*
%TO.C,N3*%
X144986379Y-91875000D03*
X151475000Y-93613621D03*
X153213621Y-91875000D03*
X153850000Y-89500000D03*
X153213621Y-87125000D03*
X151475000Y-85386379D03*
X149100000Y-84750000D03*
X146725000Y-85386379D03*
X144986379Y-87125000D03*
X144350000Y-89500000D03*
X146725000Y-93613621D03*
%TD*%
%TO.C,N2*%
X115486379Y-91875000D03*
X121975000Y-93613621D03*
X123713621Y-91875000D03*
X124350000Y-89500000D03*
X123713621Y-87125000D03*
X121975000Y-85386379D03*
X119600000Y-84750000D03*
X117225000Y-85386379D03*
X115486379Y-87125000D03*
X114850000Y-89500000D03*
X117225000Y-93613621D03*
%TD*%
%TO.C,N5*%
X196486379Y-91875000D03*
X202975000Y-93613621D03*
X204713621Y-91875000D03*
X205350000Y-89500000D03*
X204713621Y-87125000D03*
X202975000Y-85386379D03*
X200600000Y-84750000D03*
X198225000Y-85386379D03*
X196486379Y-87125000D03*
X195850000Y-89500000D03*
X198225000Y-93613621D03*
%TD*%
D10*
%TO.C,R30*%
X86200000Y-101175000D03*
X86200000Y-102825000D03*
%TD*%
D11*
%TO.C,R24*%
X92100000Y-108825000D03*
X92100000Y-107175000D03*
%TD*%
D65*
%TO.C,D5*%
X83000000Y-98500000D03*
X83000000Y-102900000D03*
%TD*%
D15*
%TO.C,R22*%
X171275000Y-113500000D03*
X172925000Y-113500000D03*
%TD*%
D55*
%TO.C,C3*%
X179700000Y-117225000D03*
X179700000Y-118775000D03*
%TD*%
D15*
%TO.C,R21*%
X211775000Y-117500000D03*
X213425000Y-117500000D03*
%TD*%
D56*
%TO.C,NE1*%
X133075000Y-89500000D03*
D57*
X135615000Y-89500000D03*
%TD*%
D17*
%TO.C,Q2*%
X124187500Y-74450000D03*
D18*
X124187500Y-76990000D03*
X124187500Y-79530000D03*
%TD*%
D45*
%TO.C,Q17*%
X231600000Y-114200000D03*
X231600000Y-116100000D03*
X234000000Y-115150000D03*
%TD*%
M02*
