M48
; DRILL file {KiCad 8.0.4} date 2024-08-23T08:24:43+0200
; FORMAT={-:-/ absolute / inch / decimal}
; #@! TF.CreationDate,2024-08-23T08:24:43+02:00
; #@! TF.GenerationSoftware,Kicad,Pcbnew,8.0.4
; #@! TF.FileFunction,Plated,1,2,PTH
FMAT,2
INCH
; #@! TA.AperFunction,Plated,PTH,ViaDrill
T1C0.0118
; #@! TA.AperFunction,Plated,PTH,ViaDrill
T2C0.0157
; #@! TA.AperFunction,Plated,PTH,ViaDrill
T3C0.0197
; #@! TA.AperFunction,Plated,PTH,ComponentDrill
T4C0.0236
; #@! TA.AperFunction,Plated,PTH,ComponentDrill
T5C0.0276
; #@! TA.AperFunction,Plated,PTH,ComponentDrill
T6C0.0315
; #@! TA.AperFunction,Plated,PTH,ComponentDrill
T7C0.0354
; #@! TA.AperFunction,Plated,PTH,ViaDrill
T8C0.0394
; #@! TA.AperFunction,Plated,PTH,ComponentDrill
T9C0.0472
%
G90
G05
T1
X3.4409Y-3.9843
X3.5236Y-3.7638
X3.5748Y-3.7756
X3.6142Y-3.7756
X3.6535Y-3.7756
X3.6811Y-4.0512
X3.6929Y-3.7756
X3.7283Y-4.3307
X3.7323Y-3.7756
X3.748Y-4.3583
X3.815Y-3.9724
X3.815Y-4.0157
X3.8189Y-3.4528
X3.8445Y-2.9311
X3.8661Y-4.126
X3.8819Y-3.7953
X3.9094Y-4.0906
X3.9252Y-3.8189
X3.9291Y-3.7756
X3.9528Y-3.8445
X3.9567Y-4.0906
X3.9685Y-3.7756
X3.9843Y-3.8661
X3.9961Y-4.5157
X4.0079Y-3.7756
X4.0157Y-3.8937
X4.0472Y-3.7756
X4.0866Y-3.7756
X4.2205Y-3.7953
X4.248Y-3.8189
X4.2795Y-3.8406
X4.3071Y-3.8622
X4.3425Y-3.8898
X4.4016Y-3.7756
X4.5236Y-4.1654
X4.5236Y-4.1969
X4.5236Y-4.2283
X4.5236Y-4.2598
X4.5236Y-4.2913
X4.5236Y-4.3228
X4.5236Y-4.3543
X4.5236Y-4.3858
X4.5236Y-4.4173
X4.5236Y-4.4488
X4.6693Y-3.8937
X4.6693Y-4.4724
X4.685Y-3.4528
X4.7008Y-3.8937
X4.7008Y-4.4724
X4.7323Y-3.8937
X4.7323Y-4.4724
X4.7638Y-3.8937
X4.7638Y-4.4724
X4.7953Y-3.8937
X4.7953Y-4.4724
X4.7955Y-3.7758
X4.8268Y-4.4724
X4.8348Y-3.7758
X4.8583Y-4.4724
X4.8742Y-3.7758
X4.8898Y-4.4724
X4.9136Y-3.7758
X4.9213Y-4.4724
X4.9528Y-4.4724
X4.953Y-3.7758
X4.9764Y-4.1457
X5.0Y-4.2559
X5.0236Y-4.5354
X5.122Y-4.1654
X5.1693Y-3.8957
X5.1693Y-4.1969
X5.1693Y-4.2283
X5.1693Y-4.2598
X5.1693Y-4.2913
X5.1693Y-4.3228
X5.1693Y-4.3543
X5.1693Y-4.3858
X5.1693Y-4.4173
X5.1693Y-4.4488
X5.1693Y-4.4803
X5.1772Y-3.3583
X5.2047Y-3.8701
X5.2402Y-3.8465
X5.2756Y-3.8228
X5.3071Y-3.8012
X5.3386Y-4.9409
X5.3465Y-3.3583
X5.378Y-4.0945
X5.4331Y-4.0394
X5.4764Y-4.4803
X5.5394Y-3.7441
X5.6022Y-3.7758
X5.6415Y-3.7758
X5.6809Y-3.7758
X5.689Y-3.8937
X5.689Y-4.126
X5.7203Y-3.7758
X5.7441Y-3.8701
X5.7596Y-3.7758
X5.7992Y-3.8484
X5.8465Y-3.4528
X5.8543Y-3.8268
X5.9094Y-3.9921
X5.9685Y-3.9961
X5.9959Y-3.7758
X6.0079Y-3.8937
X6.0352Y-3.7758
X6.0746Y-3.7758
X6.114Y-3.7758
X6.4055Y-3.7441
X6.4687Y-3.7758
X6.5081Y-3.7758
X6.5474Y-3.7758
X6.5868Y-3.7758
X6.7126Y-3.4528
X6.7638Y-3.7874
X6.7947Y-3.811
X6.818Y-3.8327
X6.8228Y-3.9961
X6.823Y-3.7758
X6.8425Y-3.8543
X6.8624Y-3.7758
X6.9018Y-3.7758
X6.9134Y-4.4291
X6.9134Y-4.4685
X6.9411Y-3.7758
X6.9528Y-4.252
X6.9805Y-3.7758
X7.0512Y-4.7598
X7.0906Y-4.5039
X7.101Y-4.2549
X7.1063Y-4.6462
X7.126Y-4.5059
X7.1654Y-4.6496
X7.1719Y-3.7815
X7.1976Y-3.8051
X7.2008Y-4.5059
X7.2165Y-4.3071
X7.2225Y-3.8248
X7.2244Y-4.4557
X7.248Y-3.8445
X7.2559Y-3.3622
X7.2677Y-4.7244
X7.2717Y-3.8642
X7.3661Y-4.7638
X7.4213Y-4.4961
X7.4252Y-4.5394
X7.4409Y-3.3622
X7.4764Y-4.1654
X7.4764Y-4.1969
X7.4764Y-4.2283
X7.4764Y-4.2598
X7.4764Y-4.2913
X7.4764Y-4.3228
X7.4764Y-4.3543
X7.4764Y-4.3858
X7.4764Y-4.4173
X7.4764Y-4.4488
X7.5157Y-3.9843
X7.5197Y-3.8937
X7.5591Y-4.0787
X7.5669Y-3.7402
X7.622Y-4.4724
X7.6535Y-4.4724
X7.685Y-4.4724
X7.7047Y-4.8386
X7.7165Y-4.4724
X7.7352Y-5.0325
X7.748Y-4.4724
X7.752Y-5.0
X7.7795Y-4.4724
X7.811Y-4.4724
X7.8406Y-3.8642
X7.8425Y-4.4724
X7.874Y-3.4528
X7.874Y-4.4724
X7.8819Y-3.8642
X7.9055Y-4.4724
X7.9193Y-3.8642
X7.9606Y-3.8642
X7.9844Y-3.7758
X7.9961Y-3.8642
X8.0238Y-3.7758
X8.0632Y-3.7758
X8.0827Y-4.878
X8.0866Y-4.1969
X8.0866Y-4.2283
X8.0866Y-4.2598
X8.0866Y-4.2913
X8.0866Y-4.3228
X8.0866Y-4.3543
X8.0866Y-4.3858
X8.0866Y-4.4173
X8.0866Y-4.4488
X8.0866Y-4.4803
X8.0945Y-3.8622
X8.1026Y-3.7758
X8.1419Y-3.7758
X8.1457Y-4.1024
X8.1457Y-4.2638
X8.2638Y-4.5236
X8.3622Y-4.7323
X8.379Y-3.8642
X8.3858Y-4.3504
X8.4022Y-3.8425
X8.425Y-3.8209
X8.4331Y-3.7402
X8.4665Y-4.0138
X8.4665Y-4.1024
X8.5Y-4.0472
X8.575Y-3.7758
X8.5792Y-4.0664
X8.5984Y-3.8836
X8.6144Y-3.7758
X8.6299Y-4.0669
X8.6537Y-3.7758
X8.6614Y-4.248
X8.6732Y-4.0079
X8.7283Y-3.8346
X8.7402Y-3.4528
X8.7795Y-3.813
X8.7913Y-3.7677
X8.7992Y-4.2677
X8.8307Y-4.4173
X8.8307Y-4.4646
X8.8307Y-4.5157
X8.8307Y-4.5669
X8.89Y-3.7758
X8.9293Y-3.7758
X8.9687Y-3.7758
X9.0081Y-3.7758
X9.0197Y-4.3228
X9.0197Y-4.4646
X9.0551Y-4.5354
X9.0551Y-4.6732
X9.1575Y-4.252
X9.1575Y-4.3898
X9.1614Y-4.5315
X9.2677Y-4.0433
T2
X3.3661Y-4.2323
X3.4724Y-4.3386
X3.5354Y-4.2323
X3.7399Y-3.9902
X3.8268Y-3.5984
X4.1929Y-4.0827
X4.2205Y-3.1969
X4.2559Y-3.5118
X4.2717Y-4.3504
X4.3071Y-3.6772
X4.7047Y-3.5984
X5.3228Y-4.7992
X5.4646Y-3.9961
X5.4803Y-3.4409
X5.8622Y-3.5984
X5.9055Y-4.6457
X5.9449Y-4.9055
X6.126Y-4.311
X6.126Y-4.3898
X6.126Y-4.4685
X6.185Y-3.2795
X6.2795Y-3.5197
X6.3031Y-4.3701
X6.3031Y-4.4291
X6.4567Y-4.2362
X6.4567Y-4.4921
X6.7323Y-3.5984
X6.748Y-4.2441
X6.8543Y-4.4291
X6.9134Y-4.2323
X6.9134Y-4.5551
X6.9567Y-4.1142
X6.9961Y-3.2362
X7.0335Y-4.6043
X7.1102Y-4.3583
X7.1417Y-3.5157
X7.2126Y-4.565
X7.252Y-4.5945
X7.2677Y-4.6654
X7.3103Y-4.5782
X7.3799Y-4.5531
X7.4213Y-3.0157
X7.4685Y-3.8228
X7.4921Y-3.4449
X7.5709Y-3.9823
X7.8937Y-3.5984
X7.9291Y-3.748
X8.2795Y-3.2323
X8.311Y-3.5197
X8.4606Y-4.5709
X8.6457Y-4.8256
X8.7559Y-3.5984
X8.811Y-3.9016
X9.2165Y-3.5827
T3
X4.1024Y-4.0945
X4.4528Y-4.6417
X5.7126Y-4.8228
X5.9291Y-4.8228
X7.7205Y-4.6457
X7.7205Y-4.7638
X8.2328Y-4.7028
X8.485Y-4.7043
T5
X3.7673Y-3.5236
X3.8173Y-3.5236
X3.8673Y-3.5236
X3.9173Y-3.5236
X4.6335Y-3.5236
X4.6835Y-3.5236
X4.7335Y-3.5236
X4.7835Y-3.5236
X5.7949Y-3.5236
X5.8449Y-3.5236
X5.8949Y-3.5236
X5.9449Y-3.5236
X6.661Y-3.5236
X6.711Y-3.5236
X6.761Y-3.5236
X6.811Y-3.5236
X7.8224Y-3.5236
X7.8724Y-3.5236
X7.9224Y-3.5236
X7.9724Y-3.5236
X8.6886Y-3.5236
X8.7386Y-3.5236
X8.7886Y-3.5236
X8.8386Y-3.5236
T6
X3.6654Y-2.9315
X3.6654Y-3.0315
X3.6654Y-3.1315
X4.0217Y-2.9311
X4.0217Y-3.0311
X4.0217Y-3.1311
X4.533Y-2.9299
X4.533Y-3.0299
X4.533Y-3.1299
X4.8893Y-2.9311
X4.8893Y-3.0311
X4.8893Y-3.1311
X5.6909Y-2.9319
X5.6909Y-3.0319
X5.6909Y-3.1319
X6.0472Y-2.9299
X6.0472Y-3.0299
X6.0472Y-3.1299
X6.5551Y-2.9307
X6.5551Y-3.0307
X6.5551Y-3.1307
X6.9134Y-2.9299
X6.9134Y-3.0299
X6.9134Y-3.1299
X7.7168Y-2.9307
X7.7168Y-3.0307
X7.7168Y-3.1307
X8.0748Y-2.9299
X8.0748Y-3.0299
X8.0748Y-3.1299
X8.5846Y-2.9334
X8.5846Y-3.0334
X8.5846Y-3.1334
X8.9409Y-2.9299
X8.9409Y-3.0299
X8.9409Y-3.1299
T7
X5.2392Y-3.5236
X5.3392Y-3.5236
X7.2103Y-4.8491
X7.2667Y-3.5236
X7.3667Y-3.5236
X7.3678Y-4.8491
X7.5253Y-4.8491
T8
X3.7205Y-4.5
X3.9213Y-4.622
T9
X3.6555Y-3.5236
X3.6806Y-3.4301
X3.6806Y-3.6171
X3.749Y-3.3617
X3.749Y-3.6856
X3.8425Y-3.3366
X3.936Y-3.3617
X3.936Y-3.6856
X4.0045Y-3.4301
X4.0045Y-3.6171
X4.0295Y-3.5236
X4.5217Y-3.5236
X4.5467Y-3.4301
X4.5467Y-3.6171
X4.6152Y-3.3617
X4.6152Y-3.6856
X4.7087Y-3.3366
X4.8022Y-3.3617
X4.8022Y-3.6856
X4.8706Y-3.4301
X4.8706Y-3.6171
X4.8957Y-3.5236
X5.6831Y-3.5236
X5.7081Y-3.4301
X5.7081Y-3.6171
X5.7766Y-3.3617
X5.7766Y-3.6856
X5.8701Y-3.3366
X5.9636Y-3.3617
X5.9636Y-3.6856
X6.032Y-3.4301
X6.032Y-3.6171
X6.0571Y-3.5236
X6.5492Y-3.5236
X6.5743Y-3.4301
X6.5743Y-3.6171
X6.6427Y-3.3617
X6.6427Y-3.6856
X6.7362Y-3.3366
X6.8297Y-3.3617
X6.8297Y-3.6856
X6.8982Y-3.4301
X6.8982Y-3.6171
X6.9232Y-3.5236
X7.1316Y-4.7802
X7.1316Y-5.0164
X7.604Y-4.7802
X7.604Y-5.0164
X7.7106Y-3.5236
X7.7357Y-3.4301
X7.7357Y-3.6171
X7.8041Y-3.3617
X7.8041Y-3.6856
X7.8976Y-3.3366
X7.9911Y-3.3617
X7.9911Y-3.6856
X8.0596Y-3.4301
X8.0596Y-3.6171
X8.0846Y-3.5236
X8.5768Y-3.5236
X8.6018Y-3.4301
X8.6018Y-3.6171
X8.6703Y-3.3617
X8.6703Y-3.6856
X8.7638Y-3.3366
X8.8573Y-3.3617
X8.8573Y-3.6856
X8.9257Y-3.4301
X8.9257Y-3.6171
X8.9508Y-3.5236
T4
G00X8.2201Y-4.7906
M15
G01X8.2201Y-4.8339
M16
G05
G00X8.2201Y-4.961
M15
G01X8.2201Y-4.9925
M16
G05
G00X8.5602Y-4.7906
M15
G01X8.5602Y-4.8339
M16
G05
G00X8.5602Y-4.961
M15
G01X8.5602Y-4.9925
M16
G05
M30
