M48
; DRILL file {KiCad 8.0.0} date 2024-03-05T13:39:42+0100
; FORMAT={-:-/ absolute / inch / decimal}
; #@! TF.CreationDate,2024-03-05T13:39:42+01:00
; #@! TF.GenerationSoftware,Kicad,Pcbnew,8.0.0
; #@! TF.FileFunction,Plated,1,2,PTH
FMAT,2
INCH
; #@! TA.AperFunction,Plated,PTH,ViaDrill
T1C0.0118
; #@! TA.AperFunction,Plated,PTH,ViaDrill
T2C0.0157
; #@! TA.AperFunction,Plated,PTH,ViaDrill
T3C0.0197
; #@! TA.AperFunction,Plated,PTH,ComponentDrill
T4C0.0236
; #@! TA.AperFunction,Plated,PTH,ComponentDrill
T5C0.0315
; #@! TA.AperFunction,Plated,PTH,ComponentDrill
T6C0.0331
; #@! TA.AperFunction,Plated,PTH,ComponentDrill
T7C0.0354
; #@! TA.AperFunction,Plated,PTH,ViaDrill
T8C0.0394
; #@! TA.AperFunction,Plated,PTH,ComponentDrill
T9C0.0472
%
G90
G05
T1
X3.4409Y-3.9843
X3.6732Y-3.874
X3.6811Y-4.0512
X3.7283Y-4.3307
X3.748Y-4.3583
X3.815Y-3.9724
X3.815Y-4.0157
X3.8425Y-3.4528
X3.8445Y-2.9311
X3.8661Y-4.126
X3.9094Y-4.0906
X3.9567Y-4.0906
X3.9961Y-4.5157
X4.2205Y-3.689
X4.2874Y-3.7559
X4.3189Y-3.815
X4.4252Y-3.752
X4.5118Y-3.8819
X4.5236Y-4.1654
X4.5236Y-4.1969
X4.5236Y-4.2283
X4.5236Y-4.2598
X4.5236Y-4.2913
X4.5236Y-4.3228
X4.5236Y-4.3543
X4.5236Y-4.3858
X4.5236Y-4.4173
X4.5236Y-4.4488
X4.5512Y-3.5512
X4.5709Y-3.6378
X4.6457Y-3.6929
X4.6693Y-4.4724
X4.7008Y-4.4724
X4.7087Y-3.4567
X4.7323Y-4.4724
X4.7638Y-4.4724
X4.7677Y-3.689
X4.7953Y-4.4724
X4.8268Y-4.4724
X4.8583Y-4.4724
X4.8898Y-4.4724
X4.9173Y-4.1339
X4.9213Y-4.4724
X4.9528Y-4.1339
X4.9528Y-4.4724
X4.9961Y-4.6181
X5.0236Y-4.4843
X5.0472Y-4.5039
X5.1142Y-3.6378
X5.1378Y-3.7598
X5.1693Y-4.1969
X5.1693Y-4.2283
X5.1693Y-4.2598
X5.1693Y-4.2913
X5.1693Y-4.3228
X5.1693Y-4.3543
X5.1693Y-4.3858
X5.1693Y-4.4173
X5.1693Y-4.4488
X5.3386Y-4.9409
X5.3976Y-5.0
X5.4331Y-3.8622
X5.4724Y-3.689
X5.5039Y-3.4685
X5.8435Y-3.3711
X5.8701Y-3.4567
X6.7362Y-3.4567
X6.7835Y-3.3937
X6.9134Y-4.4291
X6.9134Y-4.4685
X6.9528Y-4.252
X7.0906Y-4.5039
X7.101Y-4.2549
X7.126Y-4.5059
X7.1319Y-3.628
X7.1535Y-3.5433
X7.2008Y-4.5059
X7.2244Y-4.4557
X7.2598Y-3.5433
X7.2677Y-4.7244
X7.3386Y-3.7008
X7.3622Y-3.7795
X7.3661Y-4.7638
X7.4213Y-4.4961
X7.4252Y-4.5394
X7.4449Y-4.9606
X7.4762Y-4.7797
X7.4764Y-4.1654
X7.4764Y-4.1969
X7.4764Y-4.2283
X7.4764Y-4.2598
X7.4764Y-4.2913
X7.4764Y-4.3228
X7.4764Y-4.3543
X7.4764Y-4.3858
X7.4764Y-4.4173
X7.4764Y-4.4488
X7.5197Y-4.7795
X7.5354Y-3.4685
X7.5866Y-3.7913
X7.622Y-3.8701
X7.622Y-4.4724
X7.6496Y-4.2717
X7.6535Y-4.4724
X7.6811Y-4.3622
X7.685Y-3.8071
X7.685Y-4.4724
X7.7008Y-4.9016
X7.7087Y-3.7323
X7.7165Y-4.4055
X7.748Y-4.4724
X7.751Y-5.0482
X7.752Y-5.0
X7.7559Y-3.8268
X7.7795Y-4.4724
X7.8031Y-3.378
X7.811Y-3.8819
X7.811Y-4.4724
X7.8386Y-4.2323
X7.8976Y-3.4567
X8.0866Y-4.1969
X8.0866Y-4.2283
X8.0866Y-4.2598
X8.0866Y-4.2913
X8.0866Y-4.3228
X8.0866Y-4.3543
X8.0866Y-4.3858
X8.0866Y-4.4173
X8.0866Y-4.4488
X8.0866Y-4.4803
X8.189Y-3.7913
X8.2244Y-3.8898
X8.2283Y-4.7441
X8.2402Y-3.6969
X8.2756Y-3.7677
X8.2913Y-4.6654
X8.3031Y-3.689
X8.3031Y-3.7992
X8.311Y-4.8622
X8.3622Y-3.7362
X8.3819Y-3.8425
X8.3858Y-3.6575
X8.4134Y-3.5787
X8.4252Y-4.6772
X8.4646Y-3.8937
X8.4665Y-4.0138
X8.5Y-4.0472
X8.5792Y-4.0664
X8.6181Y-3.9646
X8.6299Y-4.0669
X8.6535Y-4.1417
X8.6772Y-4.0669
X8.7047Y-4.1417
X8.7126Y-3.9921
X8.7362Y-3.937
X8.752Y-4.1417
X8.7638Y-3.4567
X8.8031Y-4.3504
X8.937Y-3.937
X8.9984Y-4.6079
X9.1142Y-3.5118
X9.1142Y-3.6339
T2
X3.3661Y-4.2323
X3.4724Y-4.3386
X4.2047Y-3.4055
X4.315Y-3.5669
X5.252Y-3.4409
X5.3228Y-4.7992
X5.9055Y-4.6457
X5.9449Y-4.9055
X6.126Y-4.311
X6.126Y-4.3898
X6.126Y-4.4685
X6.248Y-3.8189
X6.3031Y-4.3701
X6.3031Y-4.4291
X6.3465Y-3.8189
X6.3858Y-3.4055
X6.4567Y-4.2362
X6.4646Y-4.4921
X6.748Y-4.2441
X6.8543Y-4.4291
X6.9134Y-4.2323
X6.9134Y-4.5551
X7.0335Y-4.6043
X7.1102Y-4.3583
X7.2126Y-4.565
X7.252Y-4.5945
X7.2677Y-4.6654
X7.3103Y-4.5782
X7.3543Y-3.4409
X7.3858Y-4.5472
X7.4685Y-3.8228
X7.5315Y-3.9843
X7.5354Y-4.5118
X7.9882Y-3.6575
X8.2559Y-3.4055
X8.2756Y-3.5551
X8.4094Y-4.2913
X8.4291Y-4.252
X8.5079Y-4.2913
X8.5472Y-4.252
X8.5472Y-4.5669
X8.5866Y-4.8228
X9.1063Y-3.4331
T3
X4.1024Y-4.0945
X4.4528Y-4.6417
X5.7126Y-4.8228
X5.9291Y-4.8228
X7.7205Y-4.6457
X7.7205Y-4.7638
T5
X3.6654Y-2.9315
X3.6654Y-3.0315
X3.6654Y-3.1315
X4.0217Y-2.9311
X4.0217Y-3.0311
X4.0217Y-3.1311
X4.533Y-2.9299
X4.533Y-3.0299
X4.533Y-3.1299
X4.8893Y-2.9311
X4.8893Y-3.0311
X4.8893Y-3.1311
X5.6909Y-2.9319
X5.6909Y-3.0319
X5.6909Y-3.1319
X6.0472Y-2.9299
X6.0472Y-3.0299
X6.0472Y-3.1299
X6.5551Y-2.9307
X6.5551Y-3.0307
X6.5551Y-3.1307
X6.9134Y-2.9299
X6.9134Y-3.0299
X6.9134Y-3.1299
X7.7168Y-2.9307
X7.7168Y-3.0307
X7.7168Y-3.1307
X8.0748Y-2.9299
X8.0748Y-3.0299
X8.0748Y-3.1299
X8.5846Y-2.9334
X8.5846Y-3.0334
X8.5846Y-3.1334
X8.9409Y-2.9299
X8.9409Y-3.0299
X8.9409Y-3.1299
T6
X3.6006Y-3.553
X3.6147Y-3.4372
X3.642Y-3.6621
X3.6809Y-3.3412
X3.7293Y-3.7394
X3.7842Y-3.287
X3.8425Y-3.7673
X3.9008Y-3.287
X3.9558Y-3.7394
X4.0041Y-3.3412
X4.0431Y-3.6621
X4.0704Y-3.4372
X4.0844Y-3.553
X4.4667Y-3.553
X4.4808Y-3.4372
X4.5081Y-3.6621
X4.5471Y-3.3412
X4.5954Y-3.7394
X4.6503Y-3.287
X4.7087Y-3.7673
X4.767Y-3.287
X4.8219Y-3.7394
X4.8703Y-3.3412
X4.9092Y-3.6621
X4.9365Y-3.4372
X4.9506Y-3.553
X5.6282Y-3.553
X5.6422Y-3.4372
X5.6695Y-3.6621
X5.7085Y-3.3412
X5.7568Y-3.7394
X5.8118Y-3.287
X5.8701Y-3.7673
X5.9284Y-3.287
X5.9833Y-3.7394
X6.0317Y-3.3412
X6.0706Y-3.6621
X6.0979Y-3.4372
X6.112Y-3.553
X6.4943Y-3.553
X6.5084Y-3.4372
X6.5357Y-3.6621
X6.5746Y-3.3412
X6.623Y-3.7394
X6.6779Y-3.287
X6.7362Y-3.7673
X6.7945Y-3.287
X6.8495Y-3.7394
X6.8978Y-3.3412
X6.9368Y-3.6621
X6.9641Y-3.4372
X6.9781Y-3.553
X7.6557Y-3.553
X7.6698Y-3.4372
X7.6971Y-3.6621
X7.736Y-3.3412
X7.7844Y-3.7394
X7.8393Y-3.287
X7.8976Y-3.7673
X7.956Y-3.287
X8.0109Y-3.7394
X8.0592Y-3.3412
X8.0982Y-3.6621
X8.1255Y-3.4372
X8.1396Y-3.553
X8.5219Y-3.553
X8.5359Y-3.4372
X8.5632Y-3.6621
X8.6022Y-3.3412
X8.6505Y-3.7394
X8.7055Y-3.287
X8.7638Y-3.7673
X8.8221Y-3.287
X8.877Y-3.7394
X8.9254Y-3.3412
X8.9643Y-3.6621
X8.9916Y-3.4372
X9.0057Y-3.553
T7
X7.2103Y-4.8491
X7.3678Y-4.8491
X7.5253Y-4.8491
T8
X3.7205Y-4.5
X3.8917Y-4.6713
T9
X7.1316Y-4.7802
X7.1316Y-5.0164
X7.604Y-4.7802
X7.604Y-5.0164
T4
G00X8.1213Y-4.8162
M15
G01X8.1213Y-4.8595
M16
G05
G00X8.1213Y-4.9906
M15
G01X8.1213Y-5.0143
M16
G05
G00X8.4614Y-4.8162
M15
G01X8.4614Y-4.8595
M16
G05
G00X8.4614Y-4.9906
M15
G01X8.4614Y-5.0143
M16
G05
M30
