%TF.GenerationSoftware,KiCad,Pcbnew,8.0.0*%
%TF.CreationDate,2024-03-05T13:39:49+01:00*%
%TF.ProjectId,nixie_clock_design,6e697869-655f-4636-9c6f-636b5f646573,rev?*%
%TF.SameCoordinates,Original*%
%TF.FileFunction,Soldermask,Bot*%
%TF.FilePolarity,Negative*%
%FSLAX46Y46*%
G04 Gerber Fmt 4.6, Leading zero omitted, Abs format (unit mm)*
G04 Created by KiCad (PCBNEW 8.0.0) date 2024-03-05 13:39:49*
%MOMM*%
%LPD*%
G01*
G04 APERTURE LIST*
%ADD10C,0.650000*%
%ADD11O,1.000000X2.100000*%
%ADD12O,1.000000X1.600000*%
%ADD13R,1.500000X1.500000*%
%ADD14C,1.500000*%
%ADD15C,1.551200*%
%ADD16C,2.000000*%
%ADD17C,1.700000*%
%ADD18C,3.200000*%
G04 APERTURE END LIST*
D10*
%TO.C,USB1*%
X207710000Y-123412500D03*
X213490000Y-123412500D03*
D11*
X206280000Y-122882500D03*
D12*
X206280000Y-127062500D03*
D11*
X214920000Y-122882500D03*
D12*
X214920000Y-127062500D03*
%TD*%
D13*
%TO.C,Q4*%
X227100000Y-74420000D03*
D14*
X227100000Y-76960000D03*
X227100000Y-79500000D03*
%TD*%
D13*
%TO.C,Q10*%
X218050000Y-79587500D03*
D14*
X218050000Y-77047500D03*
X218050000Y-74507500D03*
%TD*%
D13*
%TO.C,Q8*%
X115137500Y-79500000D03*
D14*
X115137500Y-76960000D03*
X115137500Y-74420000D03*
%TD*%
D15*
%TO.C,N6*%
X217505800Y-93016300D03*
X227694200Y-93016300D03*
X228744800Y-90246100D03*
X228387700Y-87305000D03*
X226704700Y-84866800D03*
X224081300Y-83489900D03*
X221118700Y-83489900D03*
X218495300Y-84866800D03*
X216812300Y-87305000D03*
X216455200Y-90246100D03*
X222600000Y-95689900D03*
X225476600Y-94980900D03*
X219723400Y-94980900D03*
%TD*%
D13*
%TO.C,Q3*%
X102150000Y-74450000D03*
D14*
X102150000Y-76990000D03*
X102150000Y-79530000D03*
%TD*%
D16*
%TO.C,SW1*%
X181142500Y-121417500D03*
X181142500Y-127417500D03*
X193142500Y-121417500D03*
X193142500Y-127417500D03*
D17*
X183142500Y-123167500D03*
X187142500Y-123167500D03*
X191142500Y-123167500D03*
%TD*%
D13*
%TO.C,Q9*%
X93100000Y-79540000D03*
D14*
X93100000Y-77000000D03*
X93100000Y-74460000D03*
%TD*%
D18*
%TO.C,REF\u002A\u002A*%
X236600000Y-72500000D03*
%TD*%
%TO.C,REF\u002A\u002A*%
X236600000Y-125500000D03*
%TD*%
%TO.C,REF\u002A\u002A*%
X83600000Y-125500000D03*
%TD*%
D13*
%TO.C,Q1*%
X153600000Y-74420000D03*
D14*
X153600000Y-76960000D03*
X153600000Y-79500000D03*
%TD*%
D13*
%TO.C,Q6*%
X175600000Y-74420000D03*
D14*
X175600000Y-76960000D03*
X175600000Y-79500000D03*
%TD*%
D13*
%TO.C,Q12*%
X166500000Y-79520000D03*
D14*
X166500000Y-76980000D03*
X166500000Y-74440000D03*
%TD*%
D15*
%TO.C,N1*%
X92505800Y-93016300D03*
X102694200Y-93016300D03*
X103744800Y-90246100D03*
X103387700Y-87305000D03*
X101704700Y-84866800D03*
X99081300Y-83489900D03*
X96118700Y-83489900D03*
X93495300Y-84866800D03*
X91812300Y-87305000D03*
X91455200Y-90246100D03*
X97600000Y-95689900D03*
X100476600Y-94980900D03*
X94723400Y-94980900D03*
%TD*%
D13*
%TO.C,Q7*%
X144550000Y-79550000D03*
D14*
X144550000Y-77010000D03*
X144550000Y-74470000D03*
%TD*%
D13*
%TO.C,Q5*%
X205100000Y-74420000D03*
D14*
X205100000Y-76960000D03*
X205100000Y-79500000D03*
%TD*%
D18*
%TO.C,REF\u002A\u002A*%
X83600000Y-72500000D03*
%TD*%
D15*
%TO.C,N4*%
X166005800Y-93016300D03*
X176194200Y-93016300D03*
X177244800Y-90246100D03*
X176887700Y-87305000D03*
X175204700Y-84866800D03*
X172581300Y-83489900D03*
X169618700Y-83489900D03*
X166995300Y-84866800D03*
X165312300Y-87305000D03*
X164955200Y-90246100D03*
X171100000Y-95689900D03*
X173976600Y-94980900D03*
X168223400Y-94980900D03*
%TD*%
D13*
%TO.C,Q11*%
X196007500Y-79520000D03*
D14*
X196007500Y-76980000D03*
X196007500Y-74440000D03*
%TD*%
D15*
%TO.C,N3*%
X144005800Y-93016300D03*
X154194200Y-93016300D03*
X155244800Y-90246100D03*
X154887700Y-87305000D03*
X153204700Y-84866800D03*
X150581300Y-83489900D03*
X147618700Y-83489900D03*
X144995300Y-84866800D03*
X143312300Y-87305000D03*
X142955200Y-90246100D03*
X149100000Y-95689900D03*
X151976600Y-94980900D03*
X146223400Y-94980900D03*
%TD*%
%TO.C,N2*%
X114505800Y-93016300D03*
X124694200Y-93016300D03*
X125744800Y-90246100D03*
X125387700Y-87305000D03*
X123704700Y-84866800D03*
X121081300Y-83489900D03*
X118118700Y-83489900D03*
X115495300Y-84866800D03*
X113812300Y-87305000D03*
X113455200Y-90246100D03*
X119600000Y-95689900D03*
X122476600Y-94980900D03*
X116723400Y-94980900D03*
%TD*%
%TO.C,N5*%
X195505800Y-93016300D03*
X205694200Y-93016300D03*
X206744800Y-90246100D03*
X206387700Y-87305000D03*
X204704700Y-84866800D03*
X202081300Y-83489900D03*
X199118700Y-83489900D03*
X196495300Y-84866800D03*
X194812300Y-87305000D03*
X194455200Y-90246100D03*
X200600000Y-95689900D03*
X203476600Y-94980900D03*
X197723400Y-94980900D03*
%TD*%
D13*
%TO.C,Q2*%
X124187500Y-74450000D03*
D14*
X124187500Y-76990000D03*
X124187500Y-79530000D03*
%TD*%
M02*
